# xmcd CD database file
#
# Track frame offsets:
#	150
#	20325
#	42065
#	64400
#	84287
#	104980
#	141360
#	173592
#	190202
#	208575
#	228277
#	250022
#
# Disc length: 3605 seconds
#
# Revision: 1
# Processed by: cddbd v1.5.2PL0 Copyright (c) Steve Scherf et al.
# Submitted via: CDex 1.51
#
DISCID=a00e130c
DTITLE=Collie, Max, Rhythm Aces - The Thrill of Jazz
DYEAR=1990
DGENRE=Jazz
TTITLE0=Black Bottom Stomp
TTITLE1=Lord Arsenal's Boogie
TTITLE2=I Can't Give You Anything but Love
TTITLE3=Thriller Rag
TTITLE4=Struttin' With Some Barbeque
TTITLE5=Davenport Blues
TTITLE6=Hawaiian War Chant
TTITLE7=It's Yes Yes in Your Eyes
TTITLE8=Riverside Blues
TTITLE9=Mamma Don't Want no Jazz Band
TTITLE10=Give Me a Kiss to Build a Dream On
TTITLE11=The Entertainer
EXTD=YEAR: 1990
EXTT0=
EXTT1=
EXTT2=
EXTT3=
EXTT4=
EXTT5=
EXTT6=
EXTT7=
EXTT8=
EXTT9=
EXTT10=
EXTT11=
PLAYORDER=
